# xmcd CD database file
#
# Track frame offsets:
#	150
#	12451
#	24620
#	38880
#	50207
#	61120
#	80759
#	94654
#	110245
#	122071
#	136847
#	151548
#
# Disc length: 2135 seconds
#
# Revision: 0
# Processed by: cddbd v1.5.2PL0 Copyright (c) Steve Scherf et al.
# Submitted via: CDex 1.70beta2
#
DISCID=9c08550c
DTITLE=Bowes Brothers, The - OVM - Sing Me Back Home
DYEAR=1900
DGENRE=Country
TTITLE0=Each Day I'll Do
TTITLE1=Delighted In You
TTITLE2=Church In the Wildwood
TTITLE3=Jesus Is the Answer
TTITLE4=Then I Start To Yodel
TTITLE5=How Great Thou Art
TTITLE6=Man of 87
TTITLE7=Sing Me Back Home
TTITLE8=Turn Your Radio On
TTITLE9=Years May Come
TTITLE10=The Three Bells
TTITLE11=Psalm 23
EXTD=
EXTT0=
EXTT1=
EXTT2=
EXTT3=
EXTT4=
EXTT5=
EXTT6=
EXTT7=
EXTT8=
EXTT9=
EXTT10=
EXTT11=
PLAYORDER=
